HIERARCHY
ROOT Hips
{
	OFFSET -178.139603 91.880257 -111.906502
	CHANNELS 6 Xposition Yposition Zposition Zrotation Yrotation Xrotation 
	JOINT LeftUpLeg
	{
		OFFSET 0.103462 1.857831 10.548496
		CHANNELS 3 Zrotation Yrotation Xrotation
		JOINT LeftLeg
		{
			OFFSET 43.500000 -0.000038 -0.000010
			CHANNELS 3 Zrotation Yrotation Xrotation
			JOINT LeftFoot
			{
				OFFSET 42.372192 0.000011 0.000010
				CHANNELS 3 Zrotation Yrotation Xrotation
				JOINT LeftToe
				{
					OFFSET 17.299999 0.000001 -0.000001
					CHANNELS 3 Zrotation Yrotation Xrotation
					End Site
					{
						OFFSET 0.000000 0.000000 0.000000
					}
				}
			}
		}
	}
	JOINT RightUpLeg
	{
		OFFSET 0.103456 1.857825 -10.548502
		CHANNELS 3 Zrotation Yrotation Xrotation
		JOINT RightLeg
		{
			OFFSET 43.500038 -0.000023 0.000011
			CHANNELS 3 Zrotation Yrotation Xrotation
			JOINT RightFoot
			{
				OFFSET 42.372261 -0.000008 0.000011
				CHANNELS 3 Zrotation Yrotation Xrotation
				JOINT RightToe
				{
					OFFSET 17.299994 -0.000004 0.000002
					CHANNELS 3 Zrotation Yrotation Xrotation
					End Site
					{
						OFFSET 0.000000 0.000000 0.000000
					}
				}
			}
		}
	}
	JOINT Spine
	{
		OFFSET 6.901965 -2.603729 -0.000002
		CHANNELS 3 Zrotation Yrotation Xrotation
		JOINT Spine1
		{
			OFFSET 12.588101 -0.000004 0.000003
			CHANNELS 3 Zrotation Yrotation Xrotation
			JOINT Spine2
			{
				OFFSET 12.343205 0.000006 0.000001
				CHANNELS 3 Zrotation Yrotation Xrotation
				JOINT Neck
				{
					OFFSET 25.832897 -0.000008 -0.000001
					CHANNELS 3 Zrotation Yrotation Xrotation
					JOINT Head
					{
						OFFSET 11.766601 0.000009 -0.000008
						CHANNELS 3 Zrotation Yrotation Xrotation
						End Site
						{
							OFFSET 0.000000 0.000000 0.000000
						}
					}
				}
				JOINT LeftShoulder
				{
					OFFSET 19.745893 -1.480370 6.000097
					CHANNELS 3 Zrotation Yrotation Xrotation
					JOINT LeftArm
					{
						OFFSET 11.284136 -0.000006 -0.000021
						CHANNELS 3 Zrotation Yrotation Xrotation
						JOINT LeftForeArm
						{
							OFFSET 33.000042 0.000005 0.000030
							CHANNELS 3 Zrotation Yrotation Xrotation
							JOINT LeftHand
							{
								OFFSET 25.200008 0.000013 0.000010
								CHANNELS 3 Zrotation Yrotation Xrotation
								End Site
								{
									OFFSET 0.000000 0.000000 0.000000
								}
							}
						}
					}
				}
				JOINT RightShoulder
				{
					OFFSET 19.746088 -1.480379 -6.000076
					CHANNELS 3 Zrotation Yrotation Xrotation
					JOINT RightArm
					{
						OFFSET 11.284133 -0.000016 -0.000013
						CHANNELS 3 Zrotation Yrotation Xrotation
						JOINT RightForeArm
						{
							OFFSET 33.000095 0.000019 0.000001
							CHANNELS 3 Zrotation Yrotation Xrotation
							JOINT RightHand
							{
								OFFSET 25.199785 0.000138 0.000422
								CHANNELS 3 Zrotation Yrotation Xrotation
								End Site
								{
									OFFSET 0.000000 0.000000 0.000000
								}
							}
						}
					}
				}
			}
		}
	}
}
MOTION
Frames: 8
Frame Time: 0.033333
-178.139603 91.880257 -111.906502 90.477522 5.724189 87.782459 -173.780940 1.143007 -175.758089 -7.246532 -2.933663 -7.634466 73.151155 5.472978 -0.173966 21.454557 0.003101 -0.000002 -171.237487 2.899305 -178.331841 -7.403546 3.633736 8.574333 77.160879 -5.595945 2.253085 21.454562 -0.003110 -0.000017 6.570607 -0.641537 0.141348 3.087683 -1.268651 0.254815 2.769504 -1.267021 0.262601 5.356836 -0.434790 -2.574164 -15.079000 7.017696 -5.149619 -79.662853 -85.843293 -102.477317 -5.553953 10.144751 -9.077978 -22.708012 -16.283623 1.197073 17.113763 2.654498 35.235952 -111.184729 80.623232 71.212802 -6.290622 -12.443519 9.929665 -20.755953 15.496530 -1.146782 8.260258 2.296473 -9.680069 
-178.128296 91.879913 -111.902496 90.472570 5.709413 87.776380 -173.801458 1.144505 -175.774700 -7.270525 -2.933669 -7.631305 73.163661 5.472981 -0.165661 21.454555 0.003099 0.000001 -171.249945 2.903902 -178.313768 -7.404441 3.633743 8.562025 77.160879 -5.586480 2.253086 21.454560 -0.003104 -0.000016 6.570611 -0.641529 0.141342 3.087683 -1.270821 0.254822 2.769496 -1.269180 0.262598 5.348069 -0.455410 -2.582575 -15.078997 7.046574 -5.170875 -79.801827 -85.819613 -102.340447 -5.569363 10.141579 -9.102667 -22.708011 -16.283622 1.197061 17.116575 2.659652 35.228798 -111.064975 80.623211 71.333266 -6.299054 -12.443519 9.947218 -20.769202 15.496530 -1.146786 8.274311 2.276212 -9.680900 
-178.103104 91.879044 -111.893303 90.468055 5.668140 87.764816 -173.848942 1.156006 -175.813345 -7.313736 -2.933672 -7.620229 73.182451 5.466841 -0.159081 21.454548 0.003092 -0.000003 -171.287921 2.920493 -178.288442 -7.414361 3.633735 8.546912 77.160879 -5.574523 2.257997 21.454558 -0.003108 -0.000016 6.570618 -0.641526 0.141349 3.087674 -1.277893 0.254823 2.769506 -1.276228 0.262602 5.315723 -0.500920 -2.597353 -15.078925 7.126168 -5.219619 -80.151969 -85.767976 -101.994744 -5.604366 10.125469 -9.146661 -22.708014 -16.279063 1.197065 17.146160 2.673106 35.213798 -110.866654 80.615924 71.533657 -6.321571 -12.435989 9.981490 -20.783999 15.496531 -1.146784 8.302207 2.238182 -9.658181 
-178.083405 91.878822 -111.881699 90.459203 5.640852 87.759940 -173.906889 1.155309 -175.837496 -7.367170 -2.938053 -7.598284 73.198523 5.445475 -0.177719 21.454551 0.003093 -0.000002 -171.302948 2.925708 -178.272828 -7.407110 3.633735 8.539635 77.154800 -5.567574 2.264992 21.454558 -0.003111 -0.000018 6.570606 -0.641533 0.141342 3.094228 -1.281948 0.254808 2.776047 -1.280279 0.262611 5.298684 -0.548807 -2.614438 -15.123222 7.237442 -5.285339 -80.447075 -85.726804 -101.702910 -5.625261 10.112390 -9.193591 -22.714023 -16.267141 1.197064 17.181788 2.687317 35.204789 -110.812210 80.599203 71.589842 -6.341083 -12.404349 9.993872 -20.778361 15.489249 -1.146785 8.285372 2.221949 -9.583875 
-178.068893 91.878441 -111.868301 90.449695 5.620766 87.764516 -173.940630 1.150499 -175.831978 -7.410754 -2.949223 -7.595153 73.219956 5.444163 -0.174027 21.454551 0.003095 0.000001 -171.310515 2.923356 -178.258293 -7.396478 3.628986 8.531149 77.147677 -5.558941 2.275264 21.454557 -0.003113 -0.000017 6.570615 -0.641536 0.141338 3.101143 -1.285505 0.254823 2.782968 -1.283819 0.262605 5.316940 -0.594325 -2.630364 -15.229969 7.352215 -5.355577 -80.633853 -85.710883 -101.517491 -5.625124 10.110840 -9.256406 -22.726621 -16.266720 1.197067 17.192459 2.707577 35.212870 -110.861709 80.585516 71.541041 -6.342335 -12.376710 9.997906 -20.768930 15.469161 -1.146781 8.264972 2.291779 -9.542328 
-178.057205 91.877319 -111.853600 90.441356 5.606467 87.772179 -173.957828 1.144385 -175.807007 -7.444992 -2.965338 -7.605704 73.243049 5.455117 -0.161895 21.454553 0.003096 -0.000002 -171.298767 2.917968 -178.246026 -7.377361 3.622320 8.534632 77.141768 -5.562425 2.271157 21.454562 -0.003112 -0.000016 6.570613 -0.643850 0.141356 3.106104 -1.290140 0.254806 2.787913 -1.288454 0.262610 5.353834 -0.613856 -2.644369 -15.330102 7.408776 -5.399857 -80.725965 -85.722357 -101.424136 -5.610855 10.113117 -9.299773 -22.731334 -16.283634 1.197061 17.184421 2.741172 35.223921 -110.939443 80.574662 71.463491 -6.337626 -12.376160 10.019534 -20.756398 15.465109 -1.146779 8.248743 2.343379 -9.527779 
-178.046097 91.876999 -111.836998 90.431957 5.596970 87.778374 -173.973593 1.136901 -175.793046 -7.477641 -2.978111 -7.611413 73.263553 5.460588 -0.156472 21.454553 0.003091 -0.000001 -171.301226 2.913806 -178.238649 -7.366532 3.619301 8.521288 77.130929 -5.550636 2.280740 21.454560 -0.003118 -0.000019 6.570607 -0.646343 0.141346 3.109749 -1.294964 0.259493 2.791562 -1.293231 0.267297 5.413011 -0.614198 -2.657273 -15.420066 7.423437 -5.425182 -80.791460 -85.740526 -101.356818 -5.604352 10.115640 -9.338074 -22.738217 -16.321039 1.197070 17.199398 2.791162 35.242273 -111.040229 80.567368 71.362513 -6.328069 -12.390841 10.061814 -20.747921 15.464972 -1.146782 8.268712 2.302323 -9.536919 
-178.035400 91.876266 -111.819702 90.426124 5.591576 87.782991 -173.994001 1.132297 -175.785601 -7.511862 -2.987964 -7.612358 73.281544 5.458971 -0.163346 21.454551 0.003083 -0.000001 -171.290189 2.912514 -178.238007 -7.350749 3.617865 8.522018 77.118887 -5.553709 2.271188 21.454557 -0.003121 -0.000019 6.570610 -0.648927 0.141338 3.113210 -1.301187 0.265510 2.795043 -1.299418 0.273356 5.475299 -0.604266 -2.665108 -15.487828 7.425491 -5.437864 -80.827632 -85.758223 -101.318972 -5.606000 10.115082 -9.414667 -22.755504 -16.335214 1.197061 17.237418 2.806472 35.300460 -111.153167 80.565893 71.248852 -6.308198 -12.416401 10.109234 -20.751226 15.473152 -1.146776 8.299177 2.190270 -9.629995 
